<?xml version="1.0" standalone="no"?>
<!DOCTYPE svg PUBLIC "-//W3C//DTD SVG 20010904//EN"
 "http://www.w3.org/TR/2001/REC-SVG-20010904/DTD/svg10.dtd">
<svg version="1.0" xmlns="http://www.w3.org/2000/svg"
 width="500.000000pt" height="500.000000pt" viewBox="0 0 500.000000 500.000000"
 preserveAspectRatio="xMidYMid meet">

<g transform="translate(0.000000,500.000000) scale(0.100000,-0.100000)"
fill="#000000" stroke="none">
<path d="M2180 4290 l0 -180 65 0 65 0 0 -265 0 -265 -65 0 -65 0 0 -60 0 -59
-122 -3 -123 -3 -5 -60 -5 -60 -56 -3 -56 -3 -5 -89 c-3 -49 -3 -161 0 -250
l5 -161 56 3 56 3 3 188 2 187 60 0 59 0 3 62 3 61 60 1 60 1 3 63 3 62 64 0
65 0 0 60 0 59 58 3 57 3 3 188 2 187 125 0 124 0 3 -57 3 -58 60 -5 60 -5 5
-125 5 -125 58 -3 57 -3 0 -59 0 -60 60 0 60 0 0 -174 c0 -96 3 -181 6 -190 5
-12 21 -16 70 -16 l64 0 0 -315 0 -315 188 -2 187 -3 3 -563 2 -563 58 3 57 3
5 125 5 125 40 1 c22 1 48 2 57 3 16 1 18 19 20 189 l3 187 63 3 62 3 0 179 0
180 -60 0 c-33 0 -61 1 -62 3 -1 1 -4 85 -7 187 l-6 185 -57 3 -58 3 0 64 0
65 -55 0 -55 0 0 -65 0 -65 -52 0 c-29 0 -58 -4 -65 -8 -6 -4 -13 -32 -15 -62
l-3 -55 -65 0 -65 0 -3 503 -2 502 -59 0 c-67 0 -73 7 -67 74 6 61 1 66 -70
66 l-64 0 0 60 0 60 -60 0 -60 0 0 60 0 59 -62 3 -63 3 -3 68 -3 67 -59 0 -60
0 0 60 0 60 -125 0 c-123 0 -125 0 -131 24 -3 13 -5 32 -4 42 7 61 4 64 -60
64 l-60 0 0 60 0 60 -60 0 -60 0 0 -180z"/>
<path d="M1428 3448 c-1 -7 -2 -26 -3 -43 -1 -16 -3 -38 -4 -47 -1 -13 -10
-18 -35 -18 -18 0 -48 -3 -65 -6 l-31 -6 0 -124 0 -124 -60 0 -60 0 0 -55 0
-55 120 0 119 0 3 58 3 57 60 5 60 5 0 180 0 180 -52 3 c-38 2 -53 -1 -55 -10z"/>
<path d="M1297 2823 c-4 -3 -7 -32 -7 -64 l0 -58 -57 -3 -58 -3 -5 -60 -5 -60
-57 -3 -58 -3 0 -493 0 -494 34 -6 c18 -4 40 -4 47 -1 32 11 38 -10 41 -130
l3 -120 58 -3 57 -3 0 -69 0 -70 -61 0 -60 0 3 -53 3 -52 58 -3 57 -3 0 -49
c0 -82 -4 -80 136 -80 l125 0 -3 123 -3 122 -60 5 -60 5 -3 128 -3 127 -64 0
-64 0 -3 123 -3 122 -57 3 -58 3 0 309 0 310 120 0 120 0 2 -27 c0 -16 2 -39
3 -53 2 -14 3 -31 4 -37 1 -10 46 -13 191 -13 l190 0 1 290 c1 160 1 299 1
310 0 11 0 25 -1 30 -2 15 -118 13 -124 -2 -3 -7 -2 -110 1 -229 3 -119 2
-228 -2 -242 -6 -26 -9 -27 -71 -27 -61 0 -65 1 -71 25 -3 14 -4 39 -1 54 8
37 -11 53 -55 50 -73 -5 -68 -19 -68 191 l0 190 -53 0 c-30 0 -57 -3 -60 -7z"/>
<path d="M3445 1308 c-2 -7 -6 -35 -7 -63 l-3 -50 -60 -5 -60 -5 -3 -127 -3
-128 -59 0 -60 0 0 -54 0 -53 100 -7 c135 -10 140 -8 140 59 0 61 2 62 90 67
l45 3 3 62 3 62 57 3 57 3 3 53 3 52 -60 0 -60 0 -3 68 -3 67 -58 3 c-40 2
-59 -1 -62 -10z"/>
<path d="M1550 875 c0 -49 2 -55 24 -61 13 -3 38 -4 57 -2 34 3 34 3 37 61 l3
57 -61 0 -60 0 0 -55z"/>
</g>
</svg>
