<?xml version="1.0" standalone="no"?>
<!DOCTYPE svg PUBLIC "-//W3C//DTD SVG 20010904//EN"
 "http://www.w3.org/TR/2001/REC-SVG-20010904/DTD/svg10.dtd">
<svg version="1.0" xmlns="http://www.w3.org/2000/svg"
 width="494.000000pt" height="505.000000pt" viewBox="0 0 494.000000 505.000000"
 preserveAspectRatio="xMidYMid meet">

<g transform="translate(0.000000,505.000000) scale(0.100000,-0.100000)"
fill="#000000" stroke="none">
<path d="M4700 3096 c0 -40 -4 -55 -16 -60 -9 -3 -675 -6 -1480 -6 l-1464 0 0
-55 0 -55 -116 0 -116 0 4 -57 3 -58 -115 0 -115 0 -3 -57 -3 -57 -112 -3
-112 -3 -3 -52 -3 -53 -55 0 -54 0 0 -55 0 -55 -59 0 -60 0 -3 53 -3 52 -112
3 -113 3 0 54 0 55 -280 0 -280 0 0 -395 0 -396 107 3 108 3 3 58 3 57 109 0
110 0 0 55 0 55 120 0 120 0 0 -55 0 -55 55 0 54 0 3 -57 3 -58 110 0 110 0 0
55 0 55 58 3 57 3 0 109 0 110 60 0 60 0 0 -55 0 -55 280 0 280 0 6 24 c3 13
4 37 2 52 l-3 29 -227 3 -228 2 0 60 0 60 230 0 230 0 0 -54 c0 -60 4 -64 65
-62 l40 1 3 58 3 57 739 0 740 0 0 55 0 55 683 2 682 3 3 112 3 112 57 3 57 3
3 140 c4 180 2 185 -47 185 -65 0 -71 6 -71 66 l0 54 -55 0 -55 0 0 -54z
m-2284 -228 l-1 -53 -337 -3 -338 -2 0 55 0 55 339 0 339 0 -2 -52z"/>
</g>
</svg>
